<?xml version="1.0" standalone="no"?>
<!DOCTYPE svg PUBLIC "-//W3C//DTD SVG 20010904//EN"
 "http://www.w3.org/TR/2001/REC-SVG-20010904/DTD/svg10.dtd">
<svg version="1.0" xmlns="http://www.w3.org/2000/svg"
 width="886.000000pt" height="591.000000pt" viewBox="0 0 886.000000 591.000000"
 preserveAspectRatio="xMidYMid meet">

<g transform="translate(0.000000,591.000000) scale(0.100000,-0.100000)"
fill="#000000" stroke="none">
<path d="M8370 5880 c0 -20 5 -30 15 -30 8 0 15 -4 15 -10 0 -5 9 -10 20 -10
11 0 20 -4 20 -10 0 -6 27 -10 60 -10 53 0 60 -2 60 -20 0 -15 7 -20 25 -20
14 0 37 -11 50 -25 14 -13 25 -36 25 -50 0 -14 5 -25 10 -25 6 0 10 -28 10
-64 0 -86 5 -96 46 -96 32 0 34 -2 34 -35 0 -38 36 -85 65 -85 8 0 15 -9 15
-20 0 -11 5 -20 10 -20 6 0 10 100 10 280 l0 280 -245 0 -245 0 0 -30z"/>
<path d="M0 5750 c0 -68 -7 -65 103 -48 l77 11 0 38 c0 35 -3 39 -37 48 -21 6
-62 11 -90 11 l-53 0 0 -60z"/>
<path d="M8520 5780 c0 -5 5 -10 10 -10 6 0 10 5 10 10 0 6 -4 10 -10 10 -5 0
-10 -4 -10 -10z"/>
<path d="M8620 5690 c0 -11 5 -20 10 -20 6 0 10 9 10 20 0 11 -4 20 -10 20 -5
0 -10 -9 -10 -20z"/>
<path d="M8840 5301 c-5 -11 -10 -26 -10 -35 0 -8 -13 -17 -29 -21 -16 -3 -33
-16 -39 -30 -6 -13 -20 -26 -32 -30 -20 -6 -20 -11 -14 -98 7 -98 10 -109 24
-87 6 9 26 13 64 12 l56 -1 0 154 c0 85 -2 155 -5 155 -2 0 -9 -9 -15 -19z"/>
<path d="M4385 4883 c-52 -6 -117 -26 -177 -55 -31 -15 -70 -30 -85 -34 -74
-18 -278 -141 -288 -175 -4 -10 -28 -42 -56 -71 -35 -38 -44 -54 -33 -56 12
-3 11 -11 -9 -45 -40 -68 -69 -198 -72 -322 -2 -60 -8 -130 -14 -155 -15 -62
-13 -147 4 -194 14 -41 10 -62 -35 -172 -12 -27 -11 -34 7 -60 12 -16 26 -57
33 -92 13 -61 29 -69 30 -14 0 12 9 31 20 42 l20 20 0 -25 c0 -14 7 -28 15
-31 22 -9 18 -33 -10 -70 -14 -18 -25 -38 -25 -44 0 -17 72 -81 85 -76 8 3 10
31 8 88 -2 45 -4 166 -5 268 -1 166 1 190 20 230 46 102 64 219 32 212 -12 -3
-13 -1 -2 9 6 7 12 33 13 59 0 25 6 59 12 76 22 57 72 124 104 139 18 9 35 19
37 24 3 5 23 12 43 15 59 11 74 17 68 27 -4 5 4 9 17 8 13 0 33 2 45 6 15 5
27 1 42 -14 24 -24 56 -27 214 -22 53 2 100 7 102 12 3 4 19 4 35 -1 42 -12
168 2 180 20 9 13 79 18 85 6 4 -8 6 -8 11 1 9 19 165 -34 191 -65 46 -54 101
-219 90 -264 -3 -10 -2 -18 2 -18 4 0 8 -15 9 -34 1 -18 17 -69 36 -112 37
-85 57 -207 77 -464 5 -69 11 -131 14 -137 7 -21 38 -14 65 13 34 36 32 85 -3
118 -15 14 -31 26 -35 26 -11 0 -8 30 3 31 6 0 16 11 23 25 17 32 29 23 43
-32 6 -24 15 -44 19 -44 24 0 27 209 4 288 -11 37 -14 73 -10 107 4 38 1 66
-14 108 -11 31 -20 65 -20 76 0 11 -5 23 -10 26 -6 4 -8 10 -5 15 3 5 1 17 -4
27 -19 36 -73 187 -75 211 -2 13 -8 27 -14 31 -6 3 -14 20 -17 36 -14 59 -61
126 -179 255 -12 14 -31 32 -42 40 -11 8 -28 27 -37 43 -10 15 -24 27 -33 27
-8 0 -36 8 -62 19 -58 22 -140 50 -167 55 -11 2 -67 15 -125 29 -121 30 -154
34 -195 30z m-29 -85 c-9 -5 -23 -5 -32 0 -12 6 -7 9 16 9 23 0 28 -3 16 -9z
m57 5 c-7 -2 -19 -2 -25 0 -7 3 -2 5 12 5 14 0 19 -2 13 -5z m257 -17 c0 -2
-7 -7 -16 -10 -8 -3 -12 -2 -9 4 6 10 25 14 25 6z m-547 -23 c-7 -2 -21 -2
-30 0 -10 3 -4 5 12 5 17 0 24 -2 18 -5z m114 1 c-3 -3 -12 -4 -19 -1 -8 3 -5
6 6 6 11 1 17 -2 13 -5z m563 -20 c0 -2 -9 0 -20 6 -11 6 -20 13 -20 16 0 2 9
0 20 -6 11 -6 20 -13 20 -16z"/>
<path d="M4725 4380 c3 -5 8 -10 11 -10 2 0 4 5 4 10 0 6 -5 10 -11 10 -5 0
-7 -4 -4 -10z"/>
<path d="M4837 3964 c-4 -4 -35 -9 -69 -11 -35 -3 -69 -9 -75 -15 -8 -6 -13
-7 -13 -1 0 11 -23 10 -58 -1 -12 -4 -20 -11 -17 -15 5 -10 -53 -21 -107 -21
-20 0 -40 -5 -44 -11 -4 -7 -9 -7 -13 -2 -10 16 -61 25 -61 12 0 -8 -6 -7 -17
3 -14 11 -43 14 -128 11 -60 -1 -123 -3 -140 -3 -22 0 -26 -3 -15 -10 11 -7 9
-11 -13 -19 -19 -7 -26 -15 -21 -23 5 -8 0 -7 -11 2 -15 12 -17 12 -10 1 6
-11 3 -13 -18 -7 -20 5 -29 2 -37 -15 -10 -18 -9 -20 12 -17 14 2 22 -2 21 -9
-2 -7 3 -10 10 -8 23 8 50 -22 43 -49 -3 -15 -11 -26 -16 -26 -17 0 -67 -55
-74 -82 l-6 -27 79 4 c68 4 79 2 74 -10 -3 -8 -13 -15 -22 -15 -10 0 -26 -6
-37 -14 -18 -14 -18 -15 6 -24 14 -5 58 -12 97 -16 89 -9 132 8 210 78 53 50
79 95 69 121 -3 9 3 24 14 35 11 11 20 27 20 35 0 8 5 15 10 15 6 0 10 -5 10
-10 0 -7 13 -8 34 -5 47 9 79 -14 93 -68 12 -44 58 -101 74 -91 5 3 9 1 9 -5
0 -18 103 -71 138 -71 40 0 161 27 182 40 13 9 13 12 -3 24 -9 7 -31 12 -47
10 -17 -2 -30 0 -30 5 0 12 103 22 114 11 6 -6 22 -10 37 -10 25 0 26 2 20 33
-10 42 -37 94 -55 104 -21 12 -29 63 -10 63 12 0 12 4 4 20 -9 16 -8 20 7 21
10 0 5 5 -11 9 -16 5 -34 6 -40 3 -6 -4 -4 2 4 12 14 17 13 18 -4 12 -12 -5
-17 -3 -13 5 3 8 -4 13 -18 13 -13 0 -21 -4 -17 -9 3 -5 0 -6 -7 -2 -7 5 -22
10 -34 12 -12 2 -33 6 -47 9 -14 4 -29 3 -33 -1z m198 -84 c3 -6 -4 -10 -17
-10 -18 0 -20 2 -8 10 19 12 18 12 25 0z m-82 -107 c-7 -2 -19 -2 -25 0 -7 3
-2 5 12 5 14 0 19 -2 13 -5z"/>
<path d="M4535 3430 c3 -5 10 -10 16 -10 5 0 9 5 9 10 0 6 -7 10 -16 10 -8 0
-12 -4 -9 -10z"/>
<path d="M4432 3390 c-13 -6 -27 -23 -33 -39 -8 -22 -15 -28 -31 -23 -15 3 -8
-8 26 -43 25 -27 46 -54 46 -61 0 -43 133 -61 178 -25 12 11 22 23 22 28 0 5
11 20 25 33 14 13 25 28 25 34 0 5 15 22 33 38 22 19 26 26 12 21 -11 -3 -26
-10 -32 -16 -13 -9 -14 -8 -17 14 0 7 -13 21 -28 32 -34 26 -78 17 -78 -16 -1
-26 -22 -57 -39 -57 -17 0 -61 30 -61 42 0 5 5 6 10 3 6 -3 10 1 10 9 0 8 -9
20 -19 26 -23 12 -19 12 -49 0z"/>
<path d="M4825 3379 c-4 -5 -3 -22 1 -37 4 -15 8 -30 8 -34 1 -4 9 -16 18 -27
9 -11 14 -22 11 -24 -2 -3 8 -13 24 -23 46 -29 73 -56 73 -75 0 -15 -6 -17
-36 -12 -29 5 -38 2 -51 -17 -14 -19 -22 -22 -59 -16 -24 3 -62 14 -86 25 -60
27 -84 31 -121 20 -17 -4 -66 -10 -107 -12 -41 -2 -86 -10 -100 -17 l-25 -14
33 -7 c37 -8 58 -22 27 -19 -11 1 -36 2 -55 1 -27 -1 -31 -4 -20 -11 12 -8 10
-10 -9 -10 -38 0 -155 22 -167 31 -6 5 -14 6 -17 2 -15 -14 -6 -43 21 -68 22
-21 33 -25 60 -20 21 4 40 1 54 -9 16 -12 36 -14 73 -10 40 5 55 3 68 -11 9
-9 17 -12 17 -6 0 6 5 11 10 11 6 0 6 -7 -1 -18 -8 -13 -20 -17 -43 -14 l-31
4 33 -21 c18 -12 39 -21 47 -21 8 0 15 -4 15 -10 0 -5 -11 -10 -25 -10 -17 0
-23 -4 -19 -14 3 -8 -2 -16 -11 -18 -16 -3 -16 -5 2 -26 18 -23 20 -23 113
-13 112 13 164 26 185 47 20 21 19 30 -7 48 -21 15 -21 16 -3 36 18 20 18 20
-19 20 -26 0 -36 4 -34 12 8 24 64 47 127 53 36 3 66 7 69 10 9 9 62 -30 62
-46 0 -20 27 -45 38 -35 13 13 35 110 36 158 1 33 -5 53 -19 70 -33 38 -46 66
-34 73 13 8 2 64 -17 82 -7 7 -22 13 -33 13 -12 0 -21 5 -21 10 0 13 -47 13
-55 -1z m-185 -307 c-1 -25 -25 -37 -87 -43 -72 -6 -93 1 -93 32 0 16 10 18
90 18 50 0 90 -3 90 -7z m-195 -22 c0 -22 -29 -18 -33 3 -3 14 1 18 15 15 10
-2 18 -10 18 -18z"/>
<path d="M4196 3297 c-26 -23 -26 -24 -7 -41 18 -17 18 -18 -13 -49 -17 -18
-37 -42 -43 -54 -15 -27 -17 -77 -3 -68 6 3 10 19 10 35 0 30 6 38 64 84 32
25 36 34 36 72 0 50 -6 53 -44 21z"/>
<path d="M8743 3066 c-18 -6 -33 -16 -33 -22 0 -8 -20 -16 -47 -20 -27 -3 -55
-12 -63 -19 -8 -8 -44 -19 -80 -26 -65 -13 -92 -32 -83 -56 3 -7 20 -13 38
-13 18 0 35 -6 38 -13 8 -21 109 -37 234 -37 l113 0 0 108 0 107 -43 0 c-23 0
-57 -4 -74 -9z"/>
<path d="M4585 2740 c-11 -5 -15 -9 -10 -9 6 -1 4 -5 -3 -9 -10 -7 -7 -17 13
-46 14 -20 25 -41 25 -46 0 -14 49 -8 54 7 3 7 12 13 21 13 26 0 18 47 -12 68
-37 26 -64 32 -88 22z"/>
<path d="M5198 2554 c-5 -4 -8 -28 -7 -53 l1 -46 9 34 c11 36 9 77 -3 65z"/>
<path d="M3988 2473 c-15 -17 -14 -23 13 -88 l28 -70 -6 55 c-3 30 -8 70 -12
88 -6 32 -7 33 -23 15z"/>
<path d="M4750 2446 c0 -9 7 -16 16 -16 17 0 14 22 -4 28 -7 2 -12 -3 -12 -12z"/>
<path d="M4605 2430 c-18 -19 -17 -20 4 -20 12 0 24 -6 27 -14 3 -8 12 -17 20
-20 11 -4 13 0 8 20 -5 21 -2 26 17 32 l24 6 -25 7 c-42 12 -56 10 -75 -11z"/>
<path d="M4470 2430 c0 -5 5 -10 10 -10 6 0 10 5 10 10 0 6 -4 10 -10 10 -5 0
-10 -4 -10 -10z"/>
<path d="M4510 2420 c-13 -8 -12 -10 3 -10 9 0 17 -5 17 -10 0 -6 6 -5 14 2
10 9 11 15 2 20 -14 10 -18 10 -36 -2z"/>
<path d="M5156 2375 c-9 -26 -7 -32 5 -12 6 10 9 21 6 23 -2 3 -7 -2 -11 -11z"/>
<path d="M4520 2350 c0 -6 5 -10 11 -10 6 0 8 -8 5 -18 -5 -15 -1 -17 29 -14
26 3 35 9 35 23 0 10 -3 20 -7 20 -50 7 -73 7 -73 -1z"/>
<path d="M5127 2300 c-3 -11 -3 -20 -1 -20 2 0 8 9 14 20 6 11 7 20 2 20 -6 0
-12 -9 -15 -20z"/>
<path d="M5076 2195 c-21 -41 -37 -76 -37 -79 0 -3 -9 -16 -22 -29 -54 -57
-77 -95 -77 -127 0 -13 -4 -19 -12 -14 -6 4 -8 3 -5 -3 4 -6 0 -13 -8 -17 -8
-3 -15 -11 -15 -18 0 -6 14 1 31 18 18 17 28 36 25 46 -2 10 0 16 5 12 18 -11
55 46 107 161 29 65 51 119 49 121 -2 2 -20 -30 -41 -71z"/>
<path d="M4086 2183 c31 -74 65 -121 124 -170 32 -28 57 -53 55 -57 -3 -3 -2
-4 2 -1 3 3 13 -1 22 -7 12 -10 12 -7 -2 8 -9 11 -14 24 -10 28 5 4 3 6 -2 4
-5 -1 -21 5 -35 15 -15 10 -19 17 -10 17 9 0 5 7 -10 17 -14 10 -29 17 -33 15
-5 -1 -7 3 -5 10 3 7 -8 26 -24 42 -16 15 -38 45 -48 66 -26 51 -43 61 -24 13z"/>
<path d="M4620 2014 c0 -8 5 -12 10 -9 6 3 10 10 10 16 0 5 -4 9 -10 9 -5 0
-10 -7 -10 -16z"/>
<path d="M4860 1859 c0 -5 5 -7 10 -4 6 3 10 8 10 11 0 2 -4 4 -10 4 -5 0 -10
-5 -10 -11z"/>
<path d="M4553 1838 c5 -17 2 -30 -8 -38 -14 -11 -14 -15 0 -36 11 -17 12 -25
3 -30 -7 -4 -8 -3 -4 4 4 7 2 12 -3 12 -17 0 -13 -10 20 -45 18 -19 38 -31 46
-28 9 3 16 -2 19 -15 6 -22 35 -20 66 7 10 9 24 16 31 16 7 0 13 16 14 40 1
37 1 37 -6 10 l-8 -30 -4 34 c-5 43 -45 69 -108 70 -30 1 -42 5 -38 14 2 6 -2
19 -11 26 -13 13 -14 12 -9 -11z m20 -55 c-7 -2 -19 -2 -25 0 -7 3 -2 5 12 5
14 0 19 -2 13 -5z"/>
<path d="M4720 1841 c0 -6 5 -13 10 -16 6 -3 10 1 10 9 0 9 -4 16 -10 16 -5 0
-10 -4 -10 -9z"/>
<path d="M6365 498 c-26 -73 -35 -105 -35 -127 l1 -26 15 28 c9 16 13 31 11
33 -3 3 1 27 8 55 7 27 11 49 9 49 -3 0 -7 -6 -9 -12z"/>
<path d="M6312 266 c-41 -158 -51 -176 -96 -176 -41 0 -56 -16 -56 -57 l0 -33
70 0 69 0 6 37 c4 21 11 50 17 65 6 15 7 44 4 63 -6 28 -2 41 13 62 26 32 27
69 2 76 -14 3 -20 -4 -29 -37z"/>
<path d="M3020 232 c0 -5 9 -18 20 -30 26 -28 25 -32 -9 -32 -28 0 -29 -1 -28
-49 2 -44 5 -51 35 -67 18 -10 32 -25 32 -36 0 -19 39 -27 41 -8 2 13 3 17 16
63 11 36 10 40 -35 102 -42 56 -72 81 -72 57z"/>
<path d="M0 60 l0 -60 163 1 c89 1 151 4 137 6 -14 2 -34 7 -45 12 -90 36
-132 43 -167 27 -13 -6 -20 -3 -25 10 -6 18 -49 64 -59 64 -2 0 -4 -27 -4 -60z"/>
<path d="M8695 88 c-31 -18 -65 -61 -65 -82 0 -3 52 -6 115 -6 l115 0 0 30 c0
26 -4 30 -28 30 -16 0 -34 8 -42 20 -16 22 -63 26 -95 8z"/>
</g>
</svg>
